<svg xmlns="http://www.w3.org/2000/svg" width="486" height="76.25" viewBox="0 0 1944 305">
  <defs>
    <style>
      .cls-1 {
        fill: #191d1d;
      }

      .cls-1, .cls-2 {
        fill-rule: evenodd;
      }

      .cls-2 {
        fill: #dc3840;
      }
    </style>
  </defs>
  <path id="icon-black" class="cls-1" d="M68,23c87.986-38.544,232.835-14.968,260,77,22.435,75.956-44.989,140.266-123,165-31.341,9.937-34.851-1.257-17-29,18.132-28.18,44.015-76.963,53-120,17.512-83.875-50.845-102.458-116-97-16.805,1.408-47.737,7.338-57.2,7.964C63.292,27.263,64.392,24.581,68,23Z"/>
  <path id="icon-red" class="cls-2" d="M269,282C181.013,320.544,36.165,296.968,9,205-13.435,129.044,53.989,64.734,132,40c31.34-9.937,34.85,1.257,17,29-18.132,28.18-44.015,76.963-53,120-17.512,83.875,50.845,102.458,116,97,16.805-1.408,47.737-7.338,57.2-7.964C273.708,277.737,272.608,280.42,269,282Z"/>
  <path id="docs-red" class="cls-2" d="M1570.45,202.554a66.415,66.415,0,0,1-8.74,1.66,105.717,105.717,0,0,1-14.06.775q-16.59,0-26.56-10.956t-9.96-31.1a74.435,74.435,0,0,1,1.77-16.6,37.33,37.33,0,0,1,5.76-13.39,27.914,27.914,0,0,1,10.29-8.854,33.143,33.143,0,0,1,15.16-3.209,40.881,40.881,0,0,1,15.5,2.877,42.49,42.49,0,0,1,10.84,5.976v72.819Zm0-92.075a55.661,55.661,0,0,0-11.4-5.09,53.429,53.429,0,0,0-17.59-2.656,52.206,52.206,0,0,0-22.03,4.426,45.792,45.792,0,0,0-16.26,12.395,54.428,54.428,0,0,0-10.07,19.035,81.837,81.837,0,0,0-3.44,24.346,72.635,72.635,0,0,0,4.1,25.122,52.763,52.763,0,0,0,11.62,18.924,51.146,51.146,0,0,0,18.15,11.952,64.518,64.518,0,0,0,23.9,4.205,145.014,145.014,0,0,0,25.46-1.992q11.055-1.992,18.15-3.984V48.727l-20.59,3.541v58.21Zm153.6,27.778a56.489,56.489,0,0,0-11.17-19.146,49.242,49.242,0,0,0-17.16-12.284,56.659,56.659,0,0,0-43.38,0,49.112,49.112,0,0,0-17.15,12.284,56.509,56.509,0,0,0-11.18,19.146,73.224,73.224,0,0,0-3.98,24.678,72.946,72.946,0,0,0,3.98,24.79,56.664,56.664,0,0,0,11.18,19.034,49.1,49.1,0,0,0,17.15,12.284,56.659,56.659,0,0,0,43.38,0,49.229,49.229,0,0,0,17.16-12.284,56.644,56.644,0,0,0,11.17-19.034,72.7,72.7,0,0,0,3.99-24.79A72.975,72.975,0,0,0,1724.05,138.257Zm-26.22,55.554q-8.745,11.4-23.8,11.4t-23.79-11.4q-8.745-11.4-8.74-30.876t8.74-30.876q8.745-11.4,23.79-11.4t23.8,11.4q8.73,11.4,8.74,30.876T1697.83,193.811Zm118.41,28.774q4.755-.556,8.96-1.328a72.061,72.061,0,0,0,7.53-1.771,21.556,21.556,0,0,0,5.09-2.1l-2.88-17.264a53.772,53.772,0,0,1-10.4,3.32,65.344,65.344,0,0,1-14.83,1.55q-10.185,0-17.26-2.988a29.512,29.512,0,0,1-11.62-8.522,35.025,35.025,0,0,1-6.64-13.28,64.6,64.6,0,0,1-2.11-17.042q0-20.8,9.19-31.651t26.45-10.845a60.659,60.659,0,0,1,12.95,1.328,49.759,49.759,0,0,1,10.73,3.541l4.65-17.485a71.675,71.675,0,0,0-14.83-4.206,91.623,91.623,0,0,0-15.49-1.328,56.225,56.225,0,0,0-22.91,4.538,49.144,49.144,0,0,0-17.38,12.616,57.5,57.5,0,0,0-10.95,19.145,73.078,73.078,0,0,0-3.88,24.347,78.215,78.215,0,0,0,3.55,24.236,51.23,51.23,0,0,0,10.73,18.924,49.139,49.139,0,0,0,17.71,12.394q10.5,4.425,24.45,4.427A80.408,80.408,0,0,0,1816.24,222.585ZM1866.15,203q-7.755-2.657-11.29-3.984l-3.76,17.706a123.011,123.011,0,0,0,11.73,3.874q8.625,2.541,23.9,2.545,21.915,0,33.76-8.189t11.84-24.126a34.972,34.972,0,0,0-2.44-13.833,26.743,26.743,0,0,0-6.97-9.628,45.84,45.84,0,0,0-10.96-6.972q-6.42-2.988-14.6-6.087-6.21-2.209-10.63-4.2a36.344,36.344,0,0,1-7.41-4.316,15.359,15.359,0,0,1-4.43-5.2,14.636,14.636,0,0,1-1.44-6.64,11.372,11.372,0,0,1,6.42-10.735,31.5,31.5,0,0,1,15.05-3.431,67.194,67.194,0,0,1,17.04,1.882,52.108,52.108,0,0,1,10.41,3.652l3.76-17.707q-1.77-.665-4.98-1.549t-7.41-1.66q-4.215-.774-9.08-1.328a86.652,86.652,0,0,0-9.74-.554q-19.47,0-30.76,8.964t-11.29,24.236a29.008,29.008,0,0,0,2.65,13.059,28.526,28.526,0,0,0,7.09,9.075,44.444,44.444,0,0,0,10.51,6.529q6.09,2.77,12.73,5.423,13.71,5.535,19.7,9.96a14.115,14.115,0,0,1,5.97,11.952q0,7.3-6.08,10.624t-18.71,3.32Q1873.89,205.653,1866.15,203Z"/>
  <path id="intellective-black" class="cls-1" d="M417.976,107.469H397.764V220.482h20.212V107.469ZM417,83.453a12.665,12.665,0,0,0,3.8-9.671,12.67,12.67,0,0,0-3.8-9.671,13.69,13.69,0,0,0-18.474,0,12.659,12.659,0,0,0-3.8,9.671,12.654,12.654,0,0,0,3.8,9.671A13.69,13.69,0,0,0,417,83.453Zm35.749,137.029h20.212v-95.41q1.084-.213,3.586-0.651t5.65-.761q3.148-.327,6.629-0.544t6.737-.217a38.235,38.235,0,0,1,13.475,2.065,18.514,18.514,0,0,1,8.693,6.629,30.161,30.161,0,0,1,4.673,11.953,96.551,96.551,0,0,1,1.413,17.821v59.115h20.212V157.02a95.339,95.339,0,0,0-2.174-21.081,41.212,41.212,0,0,0-7.5-16.408,35.052,35.052,0,0,0-14.235-10.65q-8.914-3.8-22.385-3.8a159.814,159.814,0,0,0-26.515,1.956q-11.522,1.956-18.473,3.694V220.482Zm143.655-148L576.19,75.955V176.8a95.229,95.229,0,0,0,1.847,19.886,35.211,35.211,0,0,0,6.412,14.452,27.681,27.681,0,0,0,12.062,8.8q7.5,2.934,19.016,2.935a60.541,60.541,0,0,0,17.387-2.283,74.9,74.9,0,0,0,10.649-3.8l-3.912-16.734q-2.175.87-7.715,2.933t-14.67,2.065a28.908,28.908,0,0,1-9.128-1.3,14.064,14.064,0,0,1-6.52-4.455,21.038,21.038,0,0,1-3.912-8.694,62.706,62.706,0,0,1-1.3-14.018V124.421h42.815V107.469H596.4V72.478Zm63.352,115.3a50.057,50.057,0,0,0,10.324,18.582,47.589,47.589,0,0,0,17.712,12.279q10.758,4.452,25.537,4.456a92.039,92.039,0,0,0,20.973-2.174q9.234-2.169,12.931-4.129l-2.825-16.952a64.271,64.271,0,0,1-10.976,3.586,74.071,74.071,0,0,1-17.93,1.848q-18.908,0-27.818-9.129t-10.215-26.732h77.371a31.3,31.3,0,0,0,.217-3.8v-3.369q0-29.119-12.171-43.358t-34.99-14.235a51.614,51.614,0,0,0-19.126,3.695,46.812,46.812,0,0,0-16.517,11.084A54.725,54.725,0,0,0,660.732,138q-4.35,11.2-4.346,26.188A78.512,78.512,0,0,0,659.754,187.773ZM677.9,153.109a49.239,49.239,0,0,1,2.716-11.519,32.482,32.482,0,0,1,5.76-10,28.974,28.974,0,0,1,9.019-7.064,26.66,26.66,0,0,1,12.279-2.717q12.388,0,19.452,8.8t6.846,22.494H677.9Zm143,52.594a53.672,53.672,0,0,1-8.041-1.63,12.152,12.152,0,0,1-5.216-2.934,11.31,11.31,0,0,1-2.826-5.216,32.724,32.724,0,0,1-.869-8.258V51.831l-20.212,3.477V190.924q0,16.088,7.824,23.69t26.515,8.041Zm59.331,0a53.672,53.672,0,0,1-8.041-1.63,12.152,12.152,0,0,1-5.216-2.934,11.31,11.31,0,0,1-2.826-5.216,32.724,32.724,0,0,1-.869-8.258V51.831l-20.212,3.477V190.924q0,16.088,7.824,23.69t26.515,8.041Zm19.667-17.93a50.057,50.057,0,0,0,10.324,18.582,47.589,47.589,0,0,0,17.712,12.279q10.758,4.452,25.537,4.456a92.039,92.039,0,0,0,20.973-2.174q9.236-2.169,12.931-4.129l-2.825-16.952a64.271,64.271,0,0,1-10.976,3.586,74.071,74.071,0,0,1-17.93,1.848q-18.908,0-27.818-9.129t-10.215-26.732h77.371a31.3,31.3,0,0,0,.217-3.8v-3.369q0-29.119-12.171-43.358t-34.99-14.235a51.614,51.614,0,0,0-19.126,3.695A46.812,46.812,0,0,0,912.4,119.422,54.725,54.725,0,0,0,900.881,138q-4.35,11.2-4.346,26.188A78.512,78.512,0,0,0,899.9,187.773Zm18.148-34.664a49.239,49.239,0,0,1,2.716-11.519,32.482,32.482,0,0,1,5.76-10,28.974,28.974,0,0,1,9.019-7.064,26.66,26.66,0,0,1,12.279-2.717q12.388,0,19.452,8.8t6.846,22.494H918.051Zm164.409,69.437q4.68-.544,8.8-1.3a70.728,70.728,0,0,0,7.39-1.739,21.014,21.014,0,0,0,5-2.065l-2.82-16.952a53.044,53.044,0,0,1-10.22,3.26,64.114,64.114,0,0,1-14.56,1.522q-10,0-16.95-2.935a29.035,29.035,0,0,1-11.41-8.367,34.4,34.4,0,0,1-6.52-13.04,63.622,63.622,0,0,1-2.07-16.735q0-20.426,9.02-31.078t25.97-10.65a59.6,59.6,0,0,1,12.72,1.305,48.731,48.731,0,0,1,10.54,3.477l4.56-17.169a70.187,70.187,0,0,0-14.56-4.13,89.881,89.881,0,0,0-15.21-1.3,55.257,55.257,0,0,0-22.5,4.455,48.352,48.352,0,0,0-17.06,12.388,56.318,56.318,0,0,0-10.75,18.8,71.839,71.839,0,0,0-3.81,23.906,77.014,77.014,0,0,0,3.48,23.8,50.532,50.532,0,0,0,10.54,18.582,48.244,48.244,0,0,0,17.39,12.171q10.32,4.345,24.01,4.347A78.677,78.677,0,0,0,1082.46,222.546Zm61.83-150.068-20.21,3.477V176.8a94.677,94.677,0,0,0,1.85,19.886,35.249,35.249,0,0,0,6.41,14.452,27.657,27.657,0,0,0,12.06,8.8q7.5,2.934,19.02,2.935a60.476,60.476,0,0,0,17.38-2.283,74.925,74.925,0,0,0,10.65-3.8l-3.91-16.734q-2.175.87-7.71,2.933t-14.67,2.065a28.916,28.916,0,0,1-9.13-1.3,14.059,14.059,0,0,1-6.52-4.455,21.038,21.038,0,0,1-3.91-8.694,62.6,62.6,0,0,1-1.31-14.018V124.421h42.82V107.469h-42.82V72.478Zm88.67,34.991h-20.21V220.482h20.21V107.469Zm-0.98-24.016a12.645,12.645,0,0,0,3.81-9.671,12.65,12.65,0,0,0-3.81-9.671,13.684,13.684,0,0,0-18.47,0,12.643,12.643,0,0,0-3.8,9.671,12.638,12.638,0,0,0,3.8,9.671A13.684,13.684,0,0,0,1231.98,83.453Zm103.13,24.016q-2.61,10.65-6.2,22.711t-7.6,23.906q-4.035,11.849-8.15,22.929-4.14,11.084-7.83,19.777-3.69-8.69-7.82-19.777t-8.15-22.929q-4.02-11.843-7.61-23.906t-6.19-22.711h-21.74a570.885,570.885,0,0,0,19.89,60.853q11.415,29.125,22.06,52.16h18.26q10.635-23.034,22.05-52.16a568.632,568.632,0,0,0,19.89-60.853h-20.86Zm35.75,80.3a49.965,49.965,0,0,0,10.32,18.582,47.6,47.6,0,0,0,17.72,12.279q10.755,4.452,25.53,4.456a92.066,92.066,0,0,0,20.98-2.174q9.225-2.169,12.93-4.129l-2.83-16.952a64.08,64.08,0,0,1-10.97,3.586,74.139,74.139,0,0,1-17.93,1.848q-18.915,0-27.82-9.129-8.925-9.127-10.22-26.732h77.37a29.732,29.732,0,0,0,.22-3.8v-3.369q0-29.119-12.17-43.358T1419,104.643a51.642,51.642,0,0,0-19.13,3.695,46.785,46.785,0,0,0-16.51,11.084A54.635,54.635,0,0,0,1371.84,138q-4.35,11.2-4.35,26.188A78.448,78.448,0,0,0,1370.86,187.773Zm18.15-34.664a49.426,49.426,0,0,1,2.71-11.519,32.684,32.684,0,0,1,5.76-10,28.978,28.978,0,0,1,9.02-7.064,26.662,26.662,0,0,1,12.28-2.717q12.39,0,19.45,8.8t6.85,22.494h-56.07Z"/>
</svg>
