<svg width="960" height="624" xmlns="http://www.w3.org/2000/svg" xmlns:xlink="http://www.w3.org/1999/xlink" overflow="hidden"><defs><filter id="fx0" x="-10%" y="-10%" width="120%" height="120%" filterUnits="userSpaceOnUse" primitiveUnits="userSpaceOnUse"><feComponentTransfer color-interpolation-filters="sRGB"><feFuncR type="discrete" tableValues="0 0"/><feFuncG type="discrete" tableValues="0 0"/><feFuncB type="discrete" tableValues="0 0"/><feFuncA type="linear" slope="0.631373" intercept="0"/></feComponentTransfer><feGaussianBlur stdDeviation="2 2"/></filter><filter id="fx1" x="-10%" y="-10%" width="120%" height="120%" filterUnits="userSpaceOnUse" primitiveUnits="userSpaceOnUse"><feComponentTransfer color-interpolation-filters="sRGB"><feFuncR type="discrete" tableValues="0 0"/><feFuncG type="discrete" tableValues="0 0"/><feFuncB type="discrete" tableValues="0 0"/><feFuncA type="linear" slope="0.4" intercept="0"/></feComponentTransfer><feGaussianBlur stdDeviation="1.77778 1.77778"/></filter><filter id="fx2" x="-10%" y="-10%" width="120%" height="120%" filterUnits="userSpaceOnUse" primitiveUnits="userSpaceOnUse"><feComponentTransfer color-interpolation-filters="sRGB"><feFuncR type="discrete" tableValues="0 0"/><feFuncG type="discrete" tableValues="0 0"/><feFuncB type="discrete" tableValues="0 0"/><feFuncA type="linear" slope="0.4" intercept="0"/></feComponentTransfer><feGaussianBlur stdDeviation="1.77778 1.77778"/></filter><filter id="fx3" x="-10%" y="-10%" width="120%" height="120%" filterUnits="userSpaceOnUse" primitiveUnits="userSpaceOnUse"><feComponentTransfer color-interpolation-filters="sRGB"><feFuncR type="discrete" tableValues="0 0"/><feFuncG type="discrete" tableValues="0 0"/><feFuncB type="discrete" tableValues="0 0"/><feFuncA type="linear" slope="0.631373" intercept="0"/></feComponentTransfer><feGaussianBlur stdDeviation="2 2"/></filter><filter id="fx4" x="-10%" y="-10%" width="120%" height="120%" filterUnits="userSpaceOnUse" primitiveUnits="userSpaceOnUse"><feComponentTransfer color-interpolation-filters="sRGB"><feFuncR type="discrete" tableValues="0 0"/><feFuncG type="discrete" tableValues="0 0"/><feFuncB type="discrete" tableValues="0 0"/><feFuncA type="linear" slope="0.631373" intercept="0"/></feComponentTransfer><feGaussianBlur stdDeviation="2 2"/></filter><filter id="fx5" x="-10%" y="-10%" width="120%" height="120%" filterUnits="userSpaceOnUse" primitiveUnits="userSpaceOnUse"><feComponentTransfer color-interpolation-filters="sRGB"><feFuncR type="discrete" tableValues="0 0"/><feFuncG type="discrete" tableValues="0 0"/><feFuncB type="discrete" tableValues="0 0"/><feFuncA type="linear" slope="0.4" intercept="0"/></feComponentTransfer><feGaussianBlur stdDeviation="1.77778 1.77778"/></filter><filter id="fx6" x="-10%" y="-10%" width="120%" height="120%" filterUnits="userSpaceOnUse" primitiveUnits="userSpaceOnUse"><feComponentTransfer color-interpolation-filters="sRGB"><feFuncR type="discrete" tableValues="0 0"/><feFuncG type="discrete" tableValues="0 0"/><feFuncB type="discrete" tableValues="0 0"/><feFuncA type="linear" slope="0.4" intercept="0"/></feComponentTransfer><feGaussianBlur stdDeviation="1.77778 1.77778"/></filter><filter id="fx7" x="-10%" y="-10%" width="120%" height="120%" filterUnits="userSpaceOnUse" primitiveUnits="userSpaceOnUse"><feComponentTransfer color-interpolation-filters="sRGB"><feFuncR type="discrete" tableValues="0 0"/><feFuncG type="discrete" tableValues="0 0"/><feFuncB type="discrete" tableValues="0 0"/><feFuncA type="linear" slope="0.631373" intercept="0"/></feComponentTransfer><feGaussianBlur stdDeviation="2 2"/></filter><filter id="fx8" x="-10%" y="-10%" width="120%" height="120%" filterUnits="userSpaceOnUse" primitiveUnits="userSpaceOnUse"><feComponentTransfer color-interpolation-filters="sRGB"><feFuncR type="discrete" tableValues="0 0"/><feFuncG type="discrete" tableValues="0 0"/><feFuncB type="discrete" tableValues="0 0"/><feFuncA type="linear" slope="0.631373" intercept="0"/></feComponentTransfer><feGaussianBlur stdDeviation="2 2"/></filter><filter id="fx9" x="-10%" y="-10%" width="120%" height="120%" filterUnits="userSpaceOnUse" primitiveUnits="userSpaceOnUse"><feComponentTransfer color-interpolation-filters="sRGB"><feFuncR type="discrete" tableValues="0 0"/><feFuncG type="discrete" tableValues="0 0"/><feFuncB type="discrete" tableValues="0 0"/><feFuncA type="linear" slope="0.631373" intercept="0"/></feComponentTransfer><feGaussianBlur stdDeviation="2 2"/></filter><filter id="fx10" x="-10%" y="-10%" width="120%" height="120%" filterUnits="userSpaceOnUse" primitiveUnits="userSpaceOnUse"><feComponentTransfer color-interpolation-filters="sRGB"><feFuncR type="discrete" tableValues="0 0"/><feFuncG type="discrete" tableValues="0 0"/><feFuncB type="discrete" tableValues="0 0"/><feFuncA type="linear" slope="0.631373" intercept="0"/></feComponentTransfer><feGaussianBlur stdDeviation="2 2"/></filter><clipPath id="clip11"><rect x="0" y="0" width="960" height="624"/></clipPath><clipPath id="clip12"><rect x="-2" y="-2" width="77" height="50"/></clipPath><clipPath id="clip13"><rect x="0" y="0" width="74" height="47"/></clipPath><linearGradient x1="552" y1="174.5" x2="552" y2="348.5" gradientUnits="userSpaceOnUse" spreadMethod="reflect" id="fill14"><stop offset="0" stop-color="#A4A8AD"/><stop offset="0.5" stop-color="#979CA1"/><stop offset="1" stop-color="#858B92"/></linearGradient><clipPath id="clip15"><rect x="-2" y="-2" width="19" height="137"/></clipPath><clipPath id="clip16"><rect x="0" y="0" width="17" height="134"/></clipPath><clipPath id="clip17"><rect x="3" y="15" width="76" height="56"/></clipPath><clipPath id="clip18"><rect x="0" y="0" width="82" height="86"/></clipPath><clipPath id="clip19"><rect x="7" y="7" width="68" height="72"/></clipPath><clipPath id="clip20"><rect x="7" y="7" width="68" height="72"/></clipPath><clipPath id="clip21"><rect x="7" y="7" width="68" height="72"/></clipPath><clipPath id="clip22"><rect x="506" y="78" width="68" height="72"/></clipPath><clipPath id="clip23"><rect x="506" y="78" width="68" height="72"/></clipPath><clipPath id="clip24"><rect x="506" y="78" width="68" height="72"/></clipPath><clipPath id="clip25"><rect x="-2" y="-2" width="43" height="52"/></clipPath><clipPath id="clip26"><rect x="0" y="0" width="41" height="48"/></clipPath><clipPath id="clip27"><rect x="-2" y="-2" width="118" height="47"/></clipPath><clipPath id="clip28"><rect x="0" y="0" width="115" height="44"/></clipPath><linearGradient x1="499" y1="422.5" x2="499" y2="452.5" gradientUnits="userSpaceOnUse" spreadMethod="reflect" id="fill29"><stop offset="0" stop-color="#A4A8AD"/><stop offset="0.5" stop-color="#979CA1"/><stop offset="1" stop-color="#858B92"/></linearGradient><linearGradient x1="413" y1="422.5" x2="413" y2="452.5" gradientUnits="userSpaceOnUse" spreadMethod="reflect" id="fill30"><stop offset="0" stop-color="#A4A8AD"/><stop offset="0.5" stop-color="#979CA1"/><stop offset="1" stop-color="#858B92"/></linearGradient><linearGradient x1="413" y1="459.5" x2="413" y2="488.5" gradientUnits="userSpaceOnUse" spreadMethod="reflect" id="fill31"><stop offset="0" stop-color="#A4A8AD"/><stop offset="0.5" stop-color="#979CA1"/><stop offset="1" stop-color="#858B92"/></linearGradient><linearGradient x1="498" y1="458.5" x2="498" y2="488.5" gradientUnits="userSpaceOnUse" spreadMethod="reflect" id="fill32"><stop offset="0" stop-color="#A4A8AD"/><stop offset="0.5" stop-color="#979CA1"/><stop offset="1" stop-color="#858B92"/></linearGradient><linearGradient x1="498.5" y1="494.5" x2="498.5" y2="524.5" gradientUnits="userSpaceOnUse" spreadMethod="reflect" id="fill33"><stop offset="0" stop-color="#A4A8AD"/><stop offset="0.5" stop-color="#979CA1"/><stop offset="1" stop-color="#858B92"/></linearGradient><linearGradient x1="584.5" y1="458.5" x2="584.5" y2="488.5" gradientUnits="userSpaceOnUse" spreadMethod="reflect" id="fill34"><stop offset="0" stop-color="#A4A8AD"/><stop offset="0.5" stop-color="#979CA1"/><stop offset="1" stop-color="#858B92"/></linearGradient><linearGradient x1="670" y1="458.5" x2="670" y2="487.5" gradientUnits="userSpaceOnUse" spreadMethod="reflect" id="fill35"><stop offset="0" stop-color="#A4A8AD"/><stop offset="0.5" stop-color="#979CA1"/><stop offset="1" stop-color="#858B92"/></linearGradient><linearGradient x1="670.5" y1="422.5" x2="670.5" y2="452.5" gradientUnits="userSpaceOnUse" spreadMethod="reflect" id="fill36"><stop offset="0" stop-color="#A4A8AD"/><stop offset="0.5" stop-color="#979CA1"/><stop offset="1" stop-color="#858B92"/></linearGradient><linearGradient x1="584.5" y1="422.5" x2="584.5" y2="452.5" gradientUnits="userSpaceOnUse" spreadMethod="reflect" id="fill37"><stop offset="0" stop-color="#A4A8AD"/><stop offset="0.5" stop-color="#979CA1"/><stop offset="1" stop-color="#858B92"/></linearGradient><linearGradient x1="584" y1="494.5" x2="584" y2="524.5" gradientUnits="userSpaceOnUse" spreadMethod="reflect" id="fill38"><stop offset="0" stop-color="#A4A8AD"/><stop offset="0.5" stop-color="#979CA1"/><stop offset="1" stop-color="#858B92"/></linearGradient><linearGradient x1="271" y1="422.5" x2="271" y2="452.5" gradientUnits="userSpaceOnUse" spreadMethod="reflect" id="fill39"><stop offset="0" stop-color="#A4A8AD"/><stop offset="0.5" stop-color="#979CA1"/><stop offset="1" stop-color="#858B92"/></linearGradient><linearGradient x1="271" y1="455.5" x2="271" y2="485.5" gradientUnits="userSpaceOnUse" spreadMethod="reflect" id="fill40"><stop offset="0" stop-color="#A4A8AD"/><stop offset="0.5" stop-color="#979CA1"/><stop offset="1" stop-color="#858B92"/></linearGradient><clipPath id="clip41"><rect x="-2" y="-2" width="349" height="19"/></clipPath><clipPath id="clip42"><rect x="0" y="0" width="348" height="17"/></clipPath><clipPath id="clip43"><rect x="-2" y="-2" width="93" height="19"/></clipPath><clipPath id="clip44"><rect x="0" y="0" width="92" height="17"/></clipPath><clipPath id="clip45"><rect x="-2" y="-2" width="54" height="75"/></clipPath><clipPath id="clip46"><rect x="0" y="0" width="49" height="72"/></clipPath><linearGradient x1="128.5" y1="174.5" x2="128.5" y2="212.5" gradientUnits="userSpaceOnUse" spreadMethod="reflect" id="fill47"><stop offset="0" stop-color="#A4A8AD"/><stop offset="0.5" stop-color="#979CA1"/><stop offset="1" stop-color="#858B92"/></linearGradient><linearGradient x1="128.5" y1="218.5" x2="128.5" y2="257.5" gradientUnits="userSpaceOnUse" spreadMethod="reflect" id="fill48"><stop offset="0" stop-color="#A4A8AD"/><stop offset="0.5" stop-color="#979CA1"/><stop offset="1" stop-color="#858B92"/></linearGradient><linearGradient x1="129" y1="263.5" x2="129" y2="302.5" gradientUnits="userSpaceOnUse" spreadMethod="reflect" id="fill49"><stop offset="0" stop-color="#A4A8AD"/><stop offset="0.5" stop-color="#979CA1"/><stop offset="1" stop-color="#858B92"/></linearGradient><linearGradient x1="129" y1="309.5" x2="129" y2="347.5" gradientUnits="userSpaceOnUse" spreadMethod="reflect" id="fill50"><stop offset="0" stop-color="#A4A8AD"/><stop offset="0.5" stop-color="#979CA1"/><stop offset="1" stop-color="#858B92"/></linearGradient><clipPath id="clip51"><rect x="-2" y="-2" width="52" height="47"/></clipPath><clipPath id="clip52"><rect x="0" y="0" width="49" height="44"/></clipPath><linearGradient x1="271" y1="488.5" x2="271" y2="518.5" gradientUnits="userSpaceOnUse" spreadMethod="reflect" id="fill53"><stop offset="0" stop-color="#A4A8AD"/><stop offset="0.5" stop-color="#979CA1"/><stop offset="1" stop-color="#858B92"/></linearGradient><linearGradient x1="270.5" y1="520.5" x2="270.5" y2="550.5" gradientUnits="userSpaceOnUse" spreadMethod="reflect" id="fill54"><stop offset="0" stop-color="#A4A8AD"/><stop offset="0.5" stop-color="#979CA1"/><stop offset="1" stop-color="#858B92"/></linearGradient><clipPath id="clip55"><rect x="-2" y="-2" width="71" height="50"/></clipPath><clipPath id="clip56"><rect x="0" y="0" width="68" height="46"/></clipPath><clipPath id="clip57"><rect x="-2" y="-2" width="52" height="73"/></clipPath><clipPath id="clip58"><rect x="0" y="0" width="49" height="71"/></clipPath></defs><g clip-path="url(#clip11)"><rect x="0" y="0" width="960" height="624" fill="#FFFFFF"/><rect x="69" y="522" width="251" height="44" fill="#FFFFFF"/><g clip-path="url(#clip12)" filter="url(#fx0)" transform="translate(304 434)"><g clip-path="url(#clip13)"><path d="M7 23.5 20.3614 7 20.3614 15.25 67 15.25 67 31.75 20.3614 31.75 20.3614 40Z" fill="#DC3840" fill-rule="evenodd"/></g></g><path d="M311 455.5 324.361 439 324.361 447.25 371 447.25 371 463.75 324.361 463.75 324.361 472Z" fill="#DC3840" fill-rule="evenodd"/><rect x="232.5" y="174.5" width="639" height="174" stroke="#404F5C" stroke-width="0.666667" stroke-miterlimit="8" fill="url(#fill14)"/><text fill="#FFFFFF" font-family="Lato,Lato_MSFontService,sans-serif" font-weight="400" font-size="11" transform="matrix(6.12323e-17 -1 1 6.12323e-17 861.001 323)">Java EE Application Server </text><rect x="240.5" y="183.5" width="604" height="156" stroke="#DC3840" stroke-width="3" stroke-miterlimit="8" fill="#FFFFFF"/><text fill="#DF0027" font-family="Lato,Lato_MSFontService,sans-serif" font-weight="700" font-size="16" transform="translate(522.11 202)">Unity</text><rect x="449.5" y="207.5" width="183" height="35" stroke="#404F5C" stroke-width="0.666667" stroke-miterlimit="8" fill="#8296A8"/><text fill="#FFFFFF" font-family="Lato,Lato_MSFontService,sans-serif" font-weight="700" font-size="12" transform="translate(488.167 229)">Web User Interface</text><rect x="640.5" y="207.5" width="197" height="35" stroke="#404F5C" stroke-width="0.666667" stroke-miterlimit="8" fill="#8296A8"/><text fill="#FFFFFF" font-family="Lato,Lato_MSFontService,sans-serif" font-weight="700" font-size="12" transform="translate(669.33 229)">Widgets and Components</text><rect x="692.5" y="81.5001" width="152" height="25" stroke="#404F5C" stroke-width="1.33333" stroke-miterlimit="8" fill="#404F5C"/><text fill="#FFFFFF" font-family="Lato,Lato_MSFontService,sans-serif" font-weight="700" font-size="10" transform="translate(732.827 97)">Salesforce.com</text><rect x="691.5" y="112.5" width="153" height="25" stroke="#404F5C" stroke-width="1.33333" stroke-miterlimit="8" fill="#404F5C"/><text fill="#FFFFFF" font-family="Lato,Lato_MSFontService,sans-serif" font-weight="700" font-size="10" transform="translate(713.335 128)">IBM Content Navigator</text><rect x="691.5" y="143.5" width="153" height="25" stroke="#404F5C" stroke-width="1.33333" stroke-miterlimit="8" fill="#404F5C"/><text fill="#FFFFFF" font-family="Lato,Lato_MSFontService,sans-serif" font-weight="700" font-size="9" transform="translate(713.168 154)">Other Enterprise software <tspan font-size="8" x="39.3334" y="10">(portals)</tspan></text><g clip-path="url(#clip15)" filter="url(#fx1)" transform="translate(677 45)"><g clip-path="url(#clip16)"><path d="M8.32849 7.32848 8.3286 125.973" stroke="#DF0027" stroke-width="3" stroke-miterlimit="8" fill="none" fill-rule="evenodd"/></g></g><path d="M682.5 49.5001 682.5 168.145" stroke="#DF0027" stroke-width="3" stroke-miterlimit="8" fill="none" fill-rule="evenodd"/><g clip-path="url(#clip17)" filter="url(#fx2)" transform="translate(499 75)"><g clip-path="url(#clip18)"><g clip-path="url(#clip19)"><g clip-path="url(#clip20)"><g clip-path="url(#clip21)"><path d="M23.375 21.8167C23.375 25.3375 20.5208 28.1917 17 28.1917 13.4792 28.1917 10.625 25.3375 10.625 21.8167 10.625 18.2959 13.4792 15.4417 17 15.4417 20.5208 15.4417 23.375 18.2959 23.375 21.8167Z" fill="#DC3840" transform="matrix(1 0 0 1.05882 7 7)"/><path d="M57.375 21.8167C57.375 25.3375 54.5208 28.1917 51 28.1917 47.4792 28.1917 44.625 25.3375 44.625 21.8167 44.625 18.2959 47.4792 15.4417 51 15.4417 54.5208 15.4417 57.375 18.2959 57.375 21.8167Z" fill="#DC3840" transform="matrix(1 0 0 1.05882 7 7)"/><path d="M46.75 52.5583 46.75 46.1833C46.75 45.1917 46.325 44.2 45.475 43.6333 43.775 42.2167 41.5083 41.225 39.2417 40.6583 37.6833 40.2333 35.8417 39.8083 34 39.8083 32.3 39.8083 30.4583 40.0917 28.7583 40.6583 26.4917 41.225 24.3667 42.3583 22.525 43.6333 21.675 44.3417 21.25 45.1917 21.25 46.1833L21.25 52.5583 46.75 52.5583Z" fill="#DC3840" transform="matrix(1 0 0 1.05882 7 7)"/><path d="M40.375 31.7333C40.375 35.2541 37.5208 38.1083 34 38.1083 30.4792 38.1083 27.625 35.2541 27.625 31.7333 27.625 28.2125 30.4792 25.3583 34 25.3583 37.5208 25.3583 40.375 28.2125 40.375 31.7333Z" fill="#DC3840" transform="matrix(1 0 0 1.05882 7 7)"/><path d="M62.475 33.7167C60.775 32.3 58.5083 31.3083 56.2417 30.7417 54.6833 30.3167 52.8417 29.8917 51 29.8917 49.3 29.8917 47.4583 30.175 45.7583 30.7417 44.9083 31.025 44.0583 31.3083 43.2083 31.7333L43.2083 31.875C43.2083 34.2833 42.2167 36.55 40.6583 38.1083 43.35 38.9583 45.475 40.0917 47.175 41.3667 47.6 41.7917 48.025 42.075 48.3083 42.6417L63.75 42.6417 63.75 36.2667C63.75 35.275 63.325 34.2833 62.475 33.7167Z" fill="#DC3840" transform="matrix(1 0 0 1.05882 7 7)"/><path d="M20.825 41.3667 20.825 41.3667C22.8083 39.95 25.075 38.8167 27.3417 38.1083 25.7833 36.4083 24.7917 34.2833 24.7917 31.875 24.7917 31.7333 24.7917 31.7333 24.7917 31.5917 23.9417 31.3083 23.0917 30.8833 22.2417 30.7417 20.6833 30.3167 18.8417 29.8917 17 29.8917 15.3 29.8917 13.4583 30.175 11.7583 30.7417 9.49167 31.45 7.36667 32.4417 5.525 33.7167 4.675 34.2833 4.25 35.275 4.25 36.2667L4.25 42.6417 19.55 42.6417C19.975 42.075 20.2583 41.7917 20.825 41.3667Z" fill="#DC3840" transform="matrix(1 0 0 1.05882 7 7)"/></g></g></g></g></g><g clip-path="url(#clip22)"><g clip-path="url(#clip23)"><g clip-path="url(#clip24)"><path d="M23.375 21.8167C23.375 25.3375 20.5208 28.1917 17 28.1917 13.4792 28.1917 10.625 25.3375 10.625 21.8167 10.625 18.2959 13.4792 15.4417 17 15.4417 20.5208 15.4417 23.375 18.2959 23.375 21.8167Z" fill="#DC3840" transform="matrix(1 0 0 1.05882 506 78)"/><path d="M57.375 21.8167C57.375 25.3375 54.5208 28.1917 51 28.1917 47.4792 28.1917 44.625 25.3375 44.625 21.8167 44.625 18.2959 47.4792 15.4417 51 15.4417 54.5208 15.4417 57.375 18.2959 57.375 21.8167Z" fill="#DC3840" transform="matrix(1 0 0 1.05882 506 78)"/><path d="M46.75 52.5583 46.75 46.1833C46.75 45.1917 46.325 44.2 45.475 43.6333 43.775 42.2167 41.5083 41.225 39.2417 40.6583 37.6833 40.2333 35.8417 39.8083 34 39.8083 32.3 39.8083 30.4583 40.0917 28.7583 40.6583 26.4917 41.225 24.3667 42.3583 22.525 43.6333 21.675 44.3417 21.25 45.1917 21.25 46.1833L21.25 52.5583 46.75 52.5583Z" fill="#DC3840" transform="matrix(1 0 0 1.05882 506 78)"/><path d="M40.375 31.7333C40.375 35.2541 37.5208 38.1083 34 38.1083 30.4792 38.1083 27.625 35.2541 27.625 31.7333 27.625 28.2125 30.4792 25.3583 34 25.3583 37.5208 25.3583 40.375 28.2125 40.375 31.7333Z" fill="#DC3840" transform="matrix(1 0 0 1.05882 506 78)"/><path d="M62.475 33.7167C60.775 32.3 58.5083 31.3083 56.2417 30.7417 54.6833 30.3167 52.8417 29.8917 51 29.8917 49.3 29.8917 47.4583 30.175 45.7583 30.7417 44.9083 31.025 44.0583 31.3083 43.2083 31.7333L43.2083 31.875C43.2083 34.2833 42.2167 36.55 40.6583 38.1083 43.35 38.9583 45.475 40.0917 47.175 41.3667 47.6 41.7917 48.025 42.075 48.3083 42.6417L63.75 42.6417 63.75 36.2667C63.75 35.275 63.325 34.2833 62.475 33.7167Z" fill="#DC3840" transform="matrix(1 0 0 1.05882 506 78)"/><path d="M20.825 41.3667 20.825 41.3667C22.8083 39.95 25.075 38.8167 27.3417 38.1083 25.7833 36.4083 24.7917 34.2833 24.7917 31.875 24.7917 31.7333 24.7917 31.7333 24.7917 31.5917 23.9417 31.3083 23.0917 30.8833 22.2417 30.7417 20.6833 30.3167 18.8417 29.8917 17 29.8917 15.3 29.8917 13.4583 30.175 11.7583 30.7417 9.49167 31.45 7.36667 32.4417 5.525 33.7167 4.675 34.2833 4.25 35.275 4.25 36.2667L4.25 42.6417 19.55 42.6417C19.975 42.075 20.2583 41.7917 20.825 41.3667Z" fill="#DC3840" transform="matrix(1 0 0 1.05882 506 78)"/></g></g></g><g clip-path="url(#clip25)" filter="url(#fx3)" transform="translate(520 132)"><g clip-path="url(#clip26)"><path d="M7 27.5 13.75 27.5 13.75 7 27.25 7 27.25 27.5 34 27.5 20.5 41Z" fill="#DC3840" fill-rule="evenodd"/></g></g><path d="M527 157.5 533.75 157.5 533.75 137 547.25 137 547.25 157.5 554 157.5 540.5 171Z" fill="#DC3840" fill-rule="evenodd"/><g clip-path="url(#clip27)" filter="url(#fx4)" transform="translate(569 93)"><g clip-path="url(#clip28)"><path d="M93 37.0001 93 29.5 6.99994 29.5 6.99994 14.5001 93 14.5001 93 7.00006 108 22Z" fill="#DC3840" fill-rule="evenodd"/></g></g><path d="M662 128 662 120.5 576 120.5 576 105.5 662 105.5 662 98 677 113Z" fill="#DC3840" fill-rule="evenodd"/><rect x="349.5" y="272.5" width="122" height="35" stroke="#404F5C" stroke-width="0.666667" stroke-miterlimit="8" fill="#8296A8"/><text fill="#FFFFFF" font-family="Lato,Lato_MSFontService,sans-serif" font-weight="700" font-size="9" transform="translate(367.373 293)">Content Management</text><rect x="477.5" y="272.5" width="128" height="35" stroke="#404F5C" stroke-width="0.666667" stroke-miterlimit="8" fill="#8296A8"/><text fill="#FFFFFF" font-family="Lato,Lato_MSFontService,sans-serif" font-weight="700" font-size="9" transform="translate(511.73 288)">Process &amp; Case <tspan font-size="9" x="3.66669" y="10">Management</tspan></text><rect x="251.5" y="272.5" width="92" height="58" stroke="#404F5C" stroke-width="0.666667" stroke-miterlimit="8" fill="#DC3840"/><text fill="#FFFFFF" font-family="Lato,Lato_MSFontService,sans-serif" font-weight="700" font-size="9" transform="translate(262.024 300)">Enterprise Search <tspan font-size="9" x="12.5867" y="10">&amp; Analytics</tspan></text><rect x="611.5" y="272.5" width="127" height="35" stroke="#404F5C" stroke-width="0.666667" stroke-miterlimit="8" fill="#8296A8"/><text fill="#FFFFFF" font-family="Lato,Lato_MSFontService,sans-serif" font-weight="700" font-size="9" transform="translate(622.618 293)">Business Rules Integration</text><rect x="745.5" y="272.5" width="92" height="58" stroke="#404F5C" stroke-width="0.666667" stroke-miterlimit="8" fill="#8296A8"/><text fill="#FFFFFF" font-family="Lato,Lato_MSFontService,sans-serif" font-weight="700" font-size="9" transform="translate(759.476 294)">Configuration &amp; <tspan font-size="9" x="5.58002" y="10">Maintenance </tspan><tspan font-size="9" x="20.7466" y="21">Tools</tspan></text><rect x="251.5" y="248.5" width="586" height="20" stroke="#404F5C" stroke-width="0.666667" stroke-miterlimit="8" fill="#DC3840"/><text fill="#FFFFFF" font-family="Lato,Lato_MSFontService,sans-serif" font-weight="700" font-size="12" transform="translate(472.36 263)">Role<tspan font-size="12" x="24.3333" y="0">-</tspan><tspan font-size="12" x="28.6667" y="0">based Access Control</tspan></text><rect x="349.5" y="311.5" width="389" height="20" stroke="#404F5C" stroke-width="0.666667" stroke-miterlimit="8" fill="#DC3840"/><text fill="#FFFFFF" font-family="Lato,Lato_MSFontService,sans-serif" font-weight="700" font-size="12" transform="translate(459.837 326)">Data Providers and Connectors</text><rect x="461.5" y="422.5" width="75" height="30" stroke="#404F5C" stroke-width="0.666667" stroke-miterlimit="8" fill="url(#fill29)"/><text fill="#FFFFFF" font-family="Lato,Lato_MSFontService,sans-serif" font-weight="700" font-size="11" transform="translate(488.053 435)">IBM <tspan font-size="11" x="-14.8333" y="12">FileNet P8</tspan></text><rect x="375.5" y="422.5" width="75" height="30" stroke="#404F5C" stroke-width="0.666667" stroke-miterlimit="8" fill="url(#fill30)"/><text fill="#FFFFFF" font-family="Lato,Lato_MSFontService,sans-serif" font-weight="700" font-size="11" transform="translate(392.553 442)">Alfresco</text><rect x="375.5" y="459.5" width="75" height="29" stroke="#404F5C" stroke-width="0.666667" stroke-miterlimit="8" fill="url(#fill31)"/><text fill="#FFFFFF" font-family="Lato,Lato_MSFontService,sans-serif" font-weight="700" font-size="11" transform="translate(404.416 472)">MS <tspan font-size="11" x="-18.6667" y="12">SharePoint</tspan></text><rect x="460.5" y="458.5" width="75" height="30" stroke="#404F5C" stroke-width="0.666667" stroke-miterlimit="8" fill="url(#fill32)"/><text fill="#FFFFFF" font-family="Lato,Lato_MSFontService,sans-serif" font-weight="700" font-size="11" transform="translate(470.285 478)">Box (Cloud)</text><rect x="461.5" y="494.5" width="74" height="30" stroke="#404F5C" stroke-width="0.666667" stroke-miterlimit="8" fill="url(#fill33)"/><text fill="#FFFFFF" font-family="Lato,Lato_MSFontService,sans-serif" font-weight="700" font-size="8" transform="translate(487.884 503)">Other <tspan font-size="8" x="-17.3333" y="9">CMIS</tspan>-<tspan font-size="8" x="3.83334" y="9">compliant </tspan><tspan font-size="8" x="-10.2466" y="18">repositories</tspan></text><rect x="546.5" y="458.5" width="76" height="30" stroke="#404F5C" stroke-width="0.666667" stroke-miterlimit="8" fill="url(#fill34)"/><text fill="#FFFFFF" font-family="Lato,Lato_MSFontService,sans-serif" font-weight="700" font-size="11" transform="translate(558.953 471)">Databases <tspan font-size="5" x="0.0800171" y="7">DB2, MS SQL Oracle, </tspan><tspan font-size="5" x="6.33337" y="13">IBM Server, etc.</tspan></text><rect x="632.5" y="458.5" width="75" height="29" stroke="#404F5C" stroke-width="0.666667" stroke-miterlimit="8" fill="url(#fill35)"/><text fill="#FFFFFF" font-family="Lato,Lato_MSFontService,sans-serif" font-weight="700" font-size="11" transform="translate(653.513 477)">Drools</text><rect x="632.5" y="422.5" width="76" height="30" stroke="#404F5C" stroke-width="0.666667" stroke-miterlimit="8" fill="url(#fill36)"/><text fill="#FFFFFF" font-family="Lato,Lato_MSFontService,sans-serif" font-weight="700" font-size="11" transform="translate(656.652 442)">jBPM</text><path d="M710.5 422.5C713.261 422.5 715.5 422.873 715.5 423.333L715.5 454.667C715.5 455.127 717.739 455.5 720.5 455.5 717.739 455.5 715.5 455.873 715.5 456.333L715.5 487.667C715.5 488.127 713.261 488.5 710.5 488.5" stroke="#404F5C" stroke-miterlimit="8" fill="none" fill-rule="evenodd"/><text fill="#404F5C" font-family="Lato,Lato_MSFontService,sans-serif" font-weight="400" font-size="11" transform="translate(731.791 455)">Red Hat Process <tspan font-size="11" x="-11.7466" y="12">Automation Manager</tspan></text><rect x="546.5" y="422.5" width="76" height="30" stroke="#404F5C" stroke-width="0.666667" stroke-miterlimit="8" fill="url(#fill37)"/><text fill="#FFFFFF" font-family="Lato,Lato_MSFontService,sans-serif" font-weight="700" font-size="11" transform="translate(561.104 435)">IBM Case <tspan font-size="11" x="1.33337" y="12">Manager</tspan></text><rect x="546.5" y="494.5" width="75" height="30" stroke="#404F5C" stroke-width="0.666667" stroke-miterlimit="8" fill="url(#fill38)"/><text fill="#FFFFFF" font-family="Lato,Lato_MSFontService,sans-serif" font-weight="700" font-size="8" transform="translate(556.75 506)">Cloud Storages <tspan font-size="5" x="13.08" y="7">Amazon S3, </tspan><tspan font-size="5" x="6.83331" y="13">Hadoop DFS, etc.</tspan></text><rect x="232.5" y="422.5" width="77" height="30" stroke="#404F5C" stroke-width="0.666667" stroke-miterlimit="8" fill="url(#fill39)"/><text fill="#FFFFFF" font-family="Lato,Lato_MSFontService,sans-serif" font-weight="700" font-size="11" transform="translate(260.834 442)">Solr</text><rect x="232.5" y="455.5" width="77" height="30" stroke="#404F5C" stroke-width="0.666667" stroke-miterlimit="8" fill="url(#fill40)"/><text fill="#FFFFFF" font-family="Lato,Lato_MSFontService,sans-serif" font-weight="700" font-size="11" transform="translate(253.263 474)">Lucene</text><g clip-path="url(#clip41)" filter="url(#fx5)" transform="translate(370 409)"><g clip-path="url(#clip42)"><path d="M7.32849 8.32849 339.75 8.3286" stroke="#DC3840" stroke-width="3" stroke-miterlimit="8" fill="none" fill-rule="evenodd"/></g></g><path d="M374.5 414.5 706.921 414.5" stroke="#DC3840" stroke-width="3" stroke-miterlimit="8" fill="none" fill-rule="evenodd"/><g clip-path="url(#clip43)" filter="url(#fx6)" transform="translate(227 409)"><g clip-path="url(#clip44)"><path d="M7.32848 8.32849 83.9191 8.3286" stroke="#DC3840" stroke-width="3" stroke-miterlimit="8" fill="none" fill-rule="evenodd"/></g></g><path d="M231.5 414.5 308.091 414.5" stroke="#DC3840" stroke-width="3" stroke-miterlimit="8" fill="none" fill-rule="evenodd"/><rect x="336.5" y="423.5" width="24" height="61" stroke="#DC3840" stroke-width="3" stroke-miterlimit="8" fill="#FFFFFF"/><text fill="#DF0027" font-family="Lato,Lato_MSFontService,sans-serif" font-weight="700" font-size="10" transform="matrix(-1.83697e-16 -1 1 -1.83697e-16 351.981 474)">Crawlers</text><g clip-path="url(#clip45)" filter="url(#fx7)" transform="translate(517 347)"><g clip-path="url(#clip46)"><path d="M24.5001 64.9999 7.00006 50.8288 15.75 50.8288 15.75 6.99994 33.2501 6.99994 33.2501 50.8288 42.0001 50.8288Z" fill="#DC3840" fill-rule="evenodd"/></g></g><path d="M541.5 410 524 395.829 532.75 395.829 532.75 352 550.25 352 550.25 395.829 559 395.829Z" fill="#DC3840" fill-rule="evenodd"/><rect x="75.5001" y="174.5" width="106" height="38" stroke="#404F5C" stroke-width="0.666667" stroke-miterlimit="8" fill="url(#fill47)"/><text fill="#FFFFFF" font-family="Lato,Lato_MSFontService,sans-serif" font-weight="700" font-size="9" transform="translate(85.1848 191)">Corporate Directory<tspan font-size="9" x="11.3333" y="12">(LDAP, MS AD)</tspan></text><rect x="75.5001" y="218.5" width="106" height="39" stroke="#404F5C" stroke-width="0.666667" stroke-miterlimit="8" fill="url(#fill48)"/><text fill="#FFFFFF" font-family="Lato,Lato_MSFontService,sans-serif" font-weight="700" font-size="9" transform="translate(111.515 229)">Identity <tspan font-size="9" x="-11.2467" y="12">Management </tspan><tspan font-size="9" x="-2.83334" y="23">Solutions</tspan></text><rect x="75.5001" y="263.5" width="107" height="39" stroke="#404F5C" stroke-width="0.666667" stroke-miterlimit="8" fill="url(#fill49)"/><text fill="#FFFFFF" font-family="Lato,Lato_MSFontService,sans-serif" font-weight="700" font-size="9" transform="translate(103.275 274)">Entitlement <tspan font-size="9" x="-2.91333" y="12">Management </tspan><tspan font-size="9" x="5.5" y="23">Solutions</tspan></text><rect x="75.5001" y="309.5" width="107" height="38" stroke="#404F5C" stroke-width="0.666667" stroke-miterlimit="8" fill="url(#fill50)"/><text fill="#FFFFFF" font-family="Lato,Lato_MSFontService,sans-serif" font-weight="700" font-size="9" transform="translate(91.9451 326)">Security Auditing <tspan font-size="9" x="16.8333" y="12">Solutions</tspan></text><path d="M189.5 174.5 189.5 348.371" stroke="#DF0027" stroke-width="3" stroke-miterlimit="8" fill="none" fill-rule="evenodd"/><g clip-path="url(#clip51)" filter="url(#fx8)" transform="translate(188 237)"><g clip-path="url(#clip52)"><path d="M7 22 19.1467 7 19.1467 14.5 42 14.5 42 29.5 19.1467 29.5 19.1467 37Z" fill="#DC3840" fill-rule="evenodd"/></g></g><path d="M195 257 207.147 242 207.147 249.5 230 249.5 230 264.5 207.147 264.5 207.147 272Z" fill="#DC3840" fill-rule="evenodd"/><text fill="#404F5C" font-family="Segoe Print,Segoe Print_MSFontService,sans-serif" font-weight="400" font-size="12" transform="translate(402.559 77)">users</text><path d="M440.691 77.1799 453.732 81.1317 465.801 84.8591 476.755 88.3844 481.697 89.9878 486.26 91.5436 486.253 91.5415 490.357 92.895 494.03 94.1863 497.279 95.4173 498.699 96.0505 498.156 97.2683 496.753 96.6428 496.788 96.6573 493.565 95.436 493.581 95.4415 489.921 94.1551 489.933 94.1592 485.833 92.8067 481.271 91.2514 481.28 91.2545 476.346 89.6536 465.397 86.1295 465.404 86.1319 453.341 82.4062 453.344 82.4073 440.304 78.4559ZM498.879 92.4673 504.49 99.4327 495.551 99.7422Z" fill="#404F5C"/><text fill="#404F5C" font-family="Segoe Print,Segoe Print_MSFontService,sans-serif" font-weight="400" font-size="12" transform="translate(841.95 19)">integrated<tspan font-size="12" x="0" y="15">ui</tspan></text><path d="M50.0666-0.666654 60.194-0.604139 69.5768-0.479036 78.0863-0.228755 85.5312 0.0840539 91.6272 0.398281 93.6428 0.68761 93.4533 2.00742 91.4678 1.7224 91.5282 1.72828 85.4657 1.41578 85.472 1.41608 78.0345 1.10358 78.0429 1.10388 69.5429 0.853878 69.5536 0.854107 60.1786 0.729107 60.1834 0.729154 50.0584 0.666654ZM92.8866-2.81666 100.125 2.4375 91.5787 5.07569Z" fill="#404F5C" transform="matrix(-0.876335 0.481702 0.481702 0.876335 881.583 -6.39996)"/><text fill="#404F5C" font-family="Segoe Print,Segoe Print_MSFontService,sans-serif" font-weight="400" font-size="12" transform="translate(841.951 397)">deployment <tspan font-size="12" x="0" y="15">environment</tspan><tspan font-size="12" x="-786.052" y="8">security </tspan><tspan font-size="12" x="-786.052" y="23">facilities</tspan></text><path d="M15.7151 9.98864 16.5926 14.1881 17.4093 18.963 18.0998 24.236 18.6645 29.8825 19.4788 42.2844 19.6033 48.8844 18.2702 48.9096 18.146 42.3251 18.1473 42.3562 17.3348 29.9812 17.3366 30.0038 16.7741 24.3788 16.7765 24.3991 16.089 19.1491 16.0929 19.1749 15.2804 14.4249 15.2849 14.4489 14.4099 10.2614ZM22.9109 47.4885 19.0625 55.5625 14.9123 47.6394Z" fill="#404F5C" transform="matrix(0.936089 0.351763 0.351763 -0.936089 91.4003 401.261)"/><text fill="#404F5C" font-family="Segoe Print,Segoe Print_MSFontService,sans-serif" font-weight="400" font-size="12" transform="translate(105.102 472)">enterprise <tspan font-size="12" x="28.8333" y="15">index</tspan></text><path d="M171.62 469.288 175.276 466.226 180.116 463.154 186.107 460.163 192.945 457.313 200.459 454.637 208.672 452.258 217.257 450.119 219.571 449.679 219.821 450.988 217.525 451.425 217.561 451.417 209.007 453.549 209.031 453.542 200.849 455.912 200.887 455.9 193.409 458.563 193.442 458.55 186.641 461.385 186.682 461.366 180.742 464.332 180.802 464.298 176.027 467.329 176.098 467.277 172.476 470.31ZM217.638 446.653 226.245 449.087 219.134 454.512Z" fill="#404F5C"/><text fill="#404F5C" font-family="Segoe Print,Segoe Print_MSFontService,sans-serif" font-weight="400" font-size="12" transform="translate(755.975 532)">ECM / BPM / BRMS<tspan font-size="12" x="33.5" y="15">platforms</tspan></text><path d="M746.279 528.021 732.402 523.789 719.507 519.521 713.532 517.429 707.935 515.383 702.714 513.383 697.932 511.447 693.627 509.652 689.752 507.917 686.4 506.265 684.117 504.721 684.865 503.617 687.109 505.135 687.031 505.089 690.33 506.716 690.308 506.705 694.164 508.432 694.148 508.425 698.442 510.215 698.435 510.213 703.208 512.145 703.197 512.14 708.407 514.136 708.398 514.133 713.985 516.175 713.977 516.172 719.942 518.261 719.931 518.257 732.813 522.521 732.798 522.516 746.668 526.745ZM682.93 508.085 679.397 499.868 688.09 501.972Z" fill="#404F5C"/><rect x="232.5" y="488.5" width="77" height="30" stroke="#404F5C" stroke-width="0.666667" stroke-miterlimit="8" fill="url(#fill53)"/><text fill="#FFFFFF" font-family="Lato,Lato_MSFontService,sans-serif" font-weight="700" font-size="11" transform="translate(245.275 507)">Cassandra</text><rect x="232.5" y="520.5" width="76" height="30" stroke="#404F5C" stroke-width="0.666667" stroke-miterlimit="8" fill="url(#fill54)"/><text fill="#FFFFFF" font-family="Lato,Lato_MSFontService,sans-serif" font-weight="700" font-size="11" transform="translate(255.907 540)">Kafka</text><rect x="82.5001" y="520.5" width="89" height="30" stroke="#DC3840" stroke-width="3" stroke-miterlimit="8" fill="#FFFFFF"/><text fill="#DF0027" font-family="Lato,Lato_MSFontService,sans-serif" font-weight="700" font-size="10" transform="translate(99.2331 539)">Interchange</text><g clip-path="url(#clip55)" filter="url(#fx9)" transform="translate(169 514)"><g clip-path="url(#clip56)"><path d="M7 23 19.9565 7 19.9565 15 61 15 61 31 19.9565 31 19.9565 39Z" fill="#DC3840" fill-rule="evenodd"/></g></g><path d="M176 535 188.956 519 188.956 527 230 527 230 543 188.956 543 188.956 551Z" fill="#DC3840" fill-rule="evenodd"/><text fill="#404F5C" font-family="Segoe Print,Segoe Print_MSFontService,sans-serif" font-weight="400" font-size="12" transform="translate(111.729 592)">transform<tspan font-size="12" x="14.1667" y="15">migrate</tspan></text><path d="M17.5295 13.0608 18.2816 16.9466 18.9733 21.2854 20.0394 30.818 20.6662 41.285 20.765 45.6324 19.432 45.6627 19.3335 41.3276 19.3345 41.3523 18.7095 30.9148 18.7125 30.9491 17.65 21.4491 17.6541 21.48 16.9666 17.1675 16.9705 17.1892 16.2205 13.3142ZM24.0672 44.2237 20.25 52.3125 16.0693 44.4055Z" fill="#404F5C" transform="matrix(0.60177 0.798669 0.798669 -0.60177 159.163 584.423)"/><g clip-path="url(#clip57)" filter="url(#fx10)" transform="translate(245 346)"><g clip-path="url(#clip58)"><path d="M24.5 64 7 49.8289 15.75 49.8289 15.75 7 33.25 7 33.25 49.8289 42 49.8289Z" fill="#DC3840" fill-rule="evenodd"/></g></g><path d="M269.5 408 252 393.829 260.75 393.829 260.75 351 278.25 351 278.25 393.829 287 393.829Z" fill="#DC3840" fill-rule="evenodd"/><rect x="691.5" y="49.5001" width="153" height="25" stroke="#404F5C" stroke-width="1.33333" stroke-miterlimit="8" fill="#404F5C"/><text fill="#FFFFFF" font-family="Lato,Lato_MSFontService,sans-serif" font-weight="700" font-size="10" transform="translate(720.835 65)">Microsoft Dynamics</text><rect x="251.5" y="208.5" width="190" height="34" stroke="#404F5C" stroke-width="0.666667" stroke-miterlimit="8" fill="#8296A8"/><text fill="#FFFFFF" font-family="Lato,Lato_MSFontService,sans-serif" font-weight="700" font-size="12" transform="translate(335.926 229)">API</text><rect x="229.5" y="361.5" width="83" height="27" stroke="#DC3840" stroke-width="3" stroke-miterlimit="8" fill="#FFFFFF"/><text fill="#DF0027" font-family="Lato,Lato_MSFontService,sans-serif" font-weight="700" font-size="10" transform="translate(238.691 372)">UIE Discovery <tspan font-size="10" x="13" y="12">Services</tspan></text><path d="M832.81 395.858 828.559 393.698 823.834 390.451 818.732 386.114 813.427 380.944 808.017 375.083 802.606 368.461 797.269 361.405 795.956 359.449 797.063 358.706 798.366 360.646 798.344 360.615 803.662 367.647 803.646 367.627 809.037 374.223 809.01 374.193 814.395 380.026 814.37 380.001 819.646 385.144 819.613 385.113 824.672 389.413 824.617 389.371 829.278 392.574 829.203 392.529 833.414 394.67ZM793.932 362.414 792.793 353.543 800.574 357.954Z" fill="#404F5C"/></g></svg>